<?xml version="1.0" encoding="utf-8"?>
<!-- Generator: Adobe Illustrator 16.0.0, SVG Export Plug-In . SVG Version: 6.00 Build 0)  -->
<!DOCTYPE svg PUBLIC "-//W3C//DTD SVG 1.1//EN" "http://www.w3.org/Graphics/SVG/1.1/DTD/svg11.dtd">
<svg version="1.1" id="Capa_1" xmlns="http://www.w3.org/2000/svg" xmlns:xlink="http://www.w3.org/1999/xlink" x="0px" y="0px"
	 width="650.5px" height="657.488px" viewBox="318 35.343 650.5 657.488" enable-background="new 318 35.343 650.5 657.488"
	 xml:space="preserve">
<g transform="translate(0.000000,720.000000) scale(0.100000,-0.100000)">
	<path fill="#FFFFFF" d="M6255.002,6843.999c-540-35-1107.002-228.999-1555-531.997C4226.994,5992.001,3851.994,5560,3608.996,5056
		C3475.998,4780,3393,4520,3335.998,4200c-42.998-240-52.002-602.002-22.002-880c40-374.004,177.002-822.002,362.002-1187.998
		l52.998-102.998l-122.998-367.002c-67.998-202.002-190.996-570-274.004-817.998C3248,595,3180.002,385,3180.002,375
		c0-9.004,12.998-22.002,28.994-27.998c26.006-10,29.004-14.004,24.004-45c-6.006-32.002-5-34.004,17.998-27.002
		c40.996,12.998,935.996,297.998,1314.004,420C4763,757.998,4933,810,4943,810c8.994,0,52.002-17.002,95-39.004
		c365.996-183.994,755.996-293.994,1170.996-331.992C6373,425,6706.994,432.002,6868,455
		c953.994,132.002,1765.996,659.004,2265.996,1467.998C9296.994,2187.002,9451.994,2555,9535.002,2875
		c78.994,307.002,116.992,687.998,95.996,982.002c-54.004,780.996-355.996,1472.998-880.996,2016.997
		C8240.998,6401,7593,6727.001,6855.002,6826C6746.994,6840,6373,6852.001,6255.002,6843.999z M6645.998,6160
		C7003,6131,7295.998,6052.001,7605.002,5901c418.994-206.001,770-513.999,1030-906.001c200-301.001,322.998-625,370.996-979.004
		c22.998-167.998,22.998-507.998,0-680C8843,2127.002,7845.002,1195,6633.996,1119.004
		c-427.002-26.006-823.994,43.994-1212.002,213.994C5315.002,1380,5138,1475.996,5083,1515.996
		c-17.002,13.008-39.004,24.004-49.004,24.004c-8.994,0-222.002-65-472.002-145s-455.996-145-456.992-142.998
		c-2.002,2.002,61.992,197.002,140.996,432.998c79.004,237.002,144.004,442.002,144.004,457.998c0,16.006-18.008,52.998-44.004,90
		C3928,2832.002,3791.994,3659.003,3995.002,4360c45,152.002,81.992,245,155,390c200,391.001,505,732.002,880,982.002
		C5503,6047.998,6093.996,6203.999,6645.998,6160z"/>
	<path fill="#FFFFFF" d="M5323,5236c-22.998-7.002-56.006-23.003-75-33.999c-51.006-32.002-199.004-190-245-262.002
		C4855.998,4711,4823,4406,4910.998,4107.998c67.002-225,149.004-397.002,299.004-628.994c190-292.002,312.998-450,510-653.008
		c295.996-305,545-475.996,926.992-635c282.002-117.998,490-185,607.002-196.992c81.006-8.008,257.998,20,362.002,57.998
		c144.004,52.002,309.004,167.998,372.998,262.002c64.004,95.996,130,312.998,137.998,456.992l6.006,95l-31.006,36.006
		c-21.992,23.994-111.992,77.998-293.994,175.996c-432.002,232.002-487.002,254.004-555,217.998
		c-17.002-7.998-81.006-72.998-141.006-142.998c-177.998-207.002-215-242.998-245-242.998c-37.998,0-286.992,127.002-402.998,205
		c-135,92.002-222.998,165.996-333.994,280.996c-132.002,137.002-275,333.008-355,486.006l-18.008,35.996l72.002,79.004
		c95,100.996,134.004,162.002,172.002,267.998c39.004,107.998,37.002,141.001-20,290
		c-50.996,132.998-92.002,242.998-162.998,433.999c-57.998,157.002-101.006,221.001-161.006,240
		C5600.002,5246,5370.002,5251,5323,5236z"/>
</g>
</svg>
